<?xml version="1.0" encoding="utf-8"?>
<!-- Generator: Adobe Illustrator 22.1.0, SVG Export Plug-In . SVG Version: 6.00 Build 0)  -->
<svg version="1.1" id="Layer_1" xmlns="http://www.w3.org/2000/svg" xmlns:xlink="http://www.w3.org/1999/xlink" x="0px" y="0px"
	 viewBox="0 0 1500 1000" style="enable-background:new 0 0 1500 1000;" xml:space="preserve">
<style type="text/css">
	.st0{opacity:0.5;}
	.st1{fill:#D1D1D1;}
	.st2{opacity:0.25;fill:#D1D1D1;}
	.st3{fill:#A8A9AD;}
	.st4{fill:#242021;}
	.st5{opacity:0.3;}
	.st6{opacity:0.2;}
	.st7{opacity:0.9;}
	.st8{opacity:0.5;fill:#A8A9AD;}
</style>
<g>
	<g class="st0">
		<g>
			
				<rect x="471.3" y="487.5" transform="matrix(0.9025 -0.4308 0.4308 0.9025 -227.75 265.287)" class="st1" width="1.2" height="296.2"/>
			
				<rect x="209.7" y="838.2" transform="matrix(0.9127 -0.4087 0.4087 0.9127 -309.6227 228.6181)" class="st1" width="340.9" height="1.2"/>
			<g>
				
					<rect x="605.5" y="529" transform="matrix(0.498 -0.8672 0.8672 0.498 -59.8833 955.7883)" class="st2" width="380.1" height="1.2"/>
				
					<rect x="626.1" y="483.4" transform="matrix(0.7796 -0.6263 0.6263 0.7796 -238.9008 525.2277)" class="st1" width="1.2" height="237.2"/>
				
					<rect x="108.4" y="668.2" transform="matrix(0.619 -0.7854 0.7854 0.619 -367.7446 579.6564)" class="st1" width="610.3" height="1.2"/>
				
					<rect x="434.1" y="441.9" transform="matrix(0.2883 -0.9575 0.9575 0.2883 -337.3792 896.871)" class="st1" width="1.2" height="467.1"/>
				
					<rect x="95.3" y="671.3" transform="matrix(0.6881 -0.7256 0.7256 0.6881 -393.3975 428.5038)" class="st1" width="412.9" height="1.2"/>
				
					<rect x="35.5" y="688" transform="matrix(0.1504 -0.9886 0.9886 0.1504 -461.7364 840.0284)" class="st1" width="444.6" height="1.2"/>
				
					<rect x="288.9" y="590" transform="matrix(0.899 -0.438 0.438 0.899 -307.6844 204.5545)" class="st1" width="1.2" height="358.5"/>
				
					<rect x="336.6" y="648.9" transform="matrix(2.644445e-02 -0.9997 0.9997 2.644445e-02 -497.8882 1141.6166)" class="st1" width="1.2" height="355.1"/>
				
					<rect x="386.2" y="454.6" transform="matrix(0.7933 -0.6088 0.6088 0.7933 -324.6653 372.8621)" class="st1" width="1.2" height="420"/>
				
					<rect x="550.4" y="478.5" transform="matrix(0.7171 -0.6969 0.6969 0.7171 -284.8555 562.9078)" class="st1" width="1.2" height="307.7"/>
				
					<rect x="142" y="705.1" transform="matrix(0.9547 -0.2975 0.2975 0.9547 -185.8609 190.2292)" class="st2" width="780" height="1.2"/>
				
					<rect x="752.8" y="338.5" transform="matrix(0.4695 -0.8829 0.8829 0.4695 -50.1614 935.4911)" class="st2" width="1.2" height="341.9"/>
				
					<rect x="275.5" y="639" transform="matrix(0.8186 -0.5743 0.5743 0.8186 -408.9523 303.5237)" class="st1" width="1.2" height="320.4"/>
				
					<rect x="788.6" y="486.6" transform="matrix(9.296463e-02 -0.9957 0.9957 9.296463e-02 379.5177 1390.9724)" class="st2" width="329.1" height="1.2"/>
				
					<rect x="395.2" y="551.3" transform="matrix(0.2687 -0.9632 0.9632 0.2687 -457.5862 948.4722)" class="st1" width="1.2" height="448.5"/>
				
					<rect x="545.2" y="462" transform="matrix(0.9395 -0.3427 0.3427 0.9395 -191.3216 226.6628)" class="st1" width="1.2" height="385.5"/>
				
					<rect x="861.1" y="390.8" transform="matrix(0.4659 -0.8848 0.8848 0.4659 -3.6408 1042.4421)" class="st2" width="1.2" height="266.9"/>
				
					<rect x="884.3" y="446.1" transform="matrix(0.3631 -0.9318 0.9318 0.3631 242.552 1248.2379)" class="st2" width="300" height="1.2"/>
				
					<rect x="771.9" y="298.1" transform="matrix(0.6397 -0.7686 0.7686 0.6397 -116.2441 778.7076)" class="st2" width="1.2" height="430.5"/>
			</g>
			
				<rect x="656.1" y="546.9" transform="matrix(9.722868e-02 -0.9953 0.9953 9.722868e-02 200.7768 1316.322)" class="st1" width="339.7" height="1.2"/>
			
				<rect x="680" y="408.8" transform="matrix(0.7021 -0.7121 0.7121 0.7021 -217.0932 660.3641)" class="st1" width="1.2" height="361.6"/>
			
				<rect x="547.8" y="528.7" transform="matrix(0.5051 -0.8631 0.8631 0.5051 -118.2318 852.38)" class="st1" width="272.5" height="1.2"/>
			
				<rect x="612.4" y="617.7" transform="matrix(0.981 -0.1938 0.1938 0.981 -105.437 158.9958)" class="st1" width="294.7" height="1.2"/>
		</g>
		<g>
			<path class="st3" d="M695.5,696.9c-1.4-3,0-6.6,3-7.9c3-1.4,6.6,0,7.9,3c1.4,3,0,6.6-3,7.9C700.4,701.3,696.9,699.9,695.5,696.9z
				"/>
			<path class="st4" d="M828.5,465.2c-1.4-3,0-6.6,3-7.9c3-1.4,6.6,0,7.9,3c1.4,3,0,6.6-3,7.9C833.4,469.6,829.9,468.3,828.5,465.2z
				"/>
			<path class="st4" d="M885.7,366.8c-1.1-2.5,0-5.4,2.5-6.6c2.5-1.1,5.4,0,6.6,2.5c1.1,2.5,0,5.4-2.5,6.6
				C889.7,370.4,886.8,369.3,885.7,366.8z"/>
			<path class="st3" d="M546,512.5c-1.6-3.6,0-7.8,3.6-9.4c3.6-1.6,7.8,0,9.4,3.6c1.6,3.6,0,7.8-3.6,9.4
				C551.8,517.6,547.6,516,546,512.5z"/>
			<path class="st4" d="M610.6,648.9c-1.1-2.5,0-5.5,2.5-6.6c2.5-1.1,5.5,0,6.6,2.5c1.1,2.5,0,5.5-2.5,6.6
				C614.7,652.6,611.8,651.4,610.6,648.9z"/>
			<path class="st4" d="M547.8,465.3c-1.1-2.5,0-5.5,2.5-6.6c2.5-1.1,5.5,0,6.6,2.5c1.1,2.5,0,5.5-2.5,6.6
				C551.9,468.9,549,467.8,547.8,465.3z"/>
			<path class="st4" d="M556.6,699.1c-1.1-2.5,0-5.5,2.5-6.6c2.5-1.1,5.5,0,6.6,2.5c1.1,2.5,0,5.5-2.5,6.6
				C560.7,702.7,557.8,701.6,556.6,699.1z"/>
			<path class="st3" d="M728.5,643.4c-1.1-2.5,0-5.5,2.5-6.6c2.5-1.1,5.5,0,6.6,2.5c1.1,2.5,0,5.5-2.5,6.6
				C732.6,647,729.7,645.9,728.5,643.4z"/>
			<path class="st4" d="M398.7,830.2c-1.1-2.5,0-5.5,2.5-6.6c2.5-1.1,5.5,0,6.6,2.5c1.1,2.5,0,5.5-2.5,6.6
				C402.8,833.9,399.8,832.8,398.7,830.2z"/>
			<path class="st4" d="M714.9,628c-0.8-1.8,0-3.9,1.8-4.7c1.8-0.8,3.9,0,4.7,1.8c0.8,1.8,0,3.9-1.8,4.7
				C717.7,630.6,715.7,629.8,714.9,628z"/>
			<path class="st4" d="M821.8,558.5c-0.8-1.8,0-3.9,1.8-4.7c1.8-0.8,3.9,0,4.7,1.8c0.8,1.8,0,3.9-1.8,4.7
				C824.7,561.1,822.6,560.3,821.8,558.5z"/>
			<path class="st3" d="M532.3,770.2c-0.8-1.8,0-3.9,1.8-4.7c1.8-0.8,3.9,0,4.7,1.8c0.8,1.8,0,3.9-1.8,4.7
				C535.2,772.8,533.1,772,532.3,770.2z"/>
			<path class="st4" d="M564.7,717c-0.8-1.8,0-3.9,1.8-4.7c1.8-0.8,3.9,0,4.7,1.8c0.8,1.8,0,3.9-1.8,4.7
				C567.6,719.6,565.5,718.8,564.7,717z"/>
			<path class="st3" d="M599.8,686.7c-1.9-0.4-3.1-2.3-2.7-4.2c0.4-1.9,2.3-3.1,4.2-2.7c1.9,0.4,3.1,2.3,2.7,4.2
				C603.5,685.9,601.7,687.1,599.8,686.7z"/>
			<path class="st4" d="M403.9,686.7c-1.5,1.2-3.7,1-5-0.5c-1.2-1.5-1-3.7,0.5-5c1.5-1.2,3.7-1,5,0.5
				C405.6,683.2,405.4,685.5,403.9,686.7z"/>
			<path class="st4" d="M353.4,622.4c-1.5,1.2-3.7,1-5-0.5c-1.2-1.5-1-3.7,0.5-5c1.5-1.2,3.7-1,5,0.5
				C355.2,619,354.9,621.2,353.4,622.4z"/>
			<path class="st4" d="M462,612.9c-1.5,1.2-3.7,1-5-0.5c-1.2-1.5-1-3.7,0.5-5c1.5-1.2,3.7-1,5,0.5
				C463.8,609.5,463.6,611.7,462,612.9z"/>
			<path class="st4" d="M324.5,867.9c-1.5,1.2-3.7,1-5-0.5c-1.2-1.5-1-3.7,0.5-5c1.5-1.2,3.7-1,5,0.5
				C326.3,864.4,326,866.6,324.5,867.9z"/>
			<path class="st4" d="M337.8,760.8c-0.2-1.9,1.2-3.7,3.2-3.9c1.9-0.2,3.7,1.2,3.9,3.2c0.2,1.9-1.2,3.7-3.2,3.9
				C339.8,764.1,338,762.7,337.8,760.8z"/>
			<path class="st4" d="M486.9,794.9c-1.5,1.2-3.7,1-5-0.5c-1.2-1.5-1-3.7,0.5-5s3.7-1,5,0.5C488.7,791.5,488.4,793.7,486.9,794.9z"
				/>
			<path class="st3" d="M791.4,532.8c-0.8-1.8,0-3.9,1.8-4.7c1.8-0.8,3.9,0,4.7,1.8c0.8,1.8,0,3.9-1.8,4.7
				C794.3,535.4,792.2,534.6,791.4,532.8z"/>
			<path class="st4" d="M826.7,508.9c-0.8-1.8,0-3.9,1.8-4.7c1.8-0.8,3.9,0,4.7,1.8c0.8,1.8,0,3.9-1.8,4.7
				C829.6,511.5,827.5,510.7,826.7,508.9z"/>
			<path class="st4" d="M942.4,569.9c-0.8-1.8,0-3.9,1.8-4.7c1.8-0.8,3.9,0,4.7,1.8c0.8,1.8,0,3.9-1.8,4.7
				C945.3,572.4,943.2,571.7,942.4,569.9z"/>
			<path class="st4" d="M739.5,623.1c-0.8-1.8,0-3.9,1.8-4.7c1.8-0.8,3.9,0,4.7,1.8c0.8,1.8,0,3.9-1.8,4.7
				C742.4,625.7,740.3,624.9,739.5,623.1z"/>
			<path class="st4" d="M816,617.7c-0.8-1.8,0-3.9,1.8-4.7c1.8-0.8,3.9,0,4.7,1.8c0.8,1.8,0,3.9-1.8,4.7
				C818.9,620.3,816.8,619.5,816,617.7z"/>
			<path class="st3" d="M804.5,719.4c-1.6-2.7-0.7-6.2,2-7.8c2.7-1.6,6.2-0.7,7.8,2c1.6,2.7,0.7,6.2-2,7.8
				C809.6,723,806.1,722.1,804.5,719.4z"/>
			<path class="st3" d="M836.4,383.7c-2-3.4-0.9-7.7,2.4-9.7c3.4-2,7.7-0.9,9.7,2.4c2,3.4,0.9,7.7-2.4,9.7
				C842.7,388.2,838.4,387.1,836.4,383.7z"/>
			<path class="st4" d="M218.1,911.4c-1.6-3.6,0-7.8,3.6-9.4c3.6-1.6,7.8,0,9.4,3.6c1.6,3.6,0,7.8-3.6,9.4
				C223.9,916.5,219.7,914.9,218.1,911.4z"/>
			<path class="st4" d="M598.3,431.1c-1-2.3,0-5,2.3-6.1c2.3-1,5,0,6.1,2.3c1,2.3,0,5-2.3,6.1C602.1,434.5,599.3,433.4,598.3,431.1z
				"/>
			<path class="st4" d="M487.5,571.7c-1-2.3,0-5,2.3-6.1c2.3-1,5,0,6.1,2.3c1,2.3,0,5-2.3,6.1C491.2,575,488.5,574,487.5,571.7z"/>
			<path class="st4" d="M231.4,743.5c-1-2.3,0-5,2.3-6.1c2.3-1,5,0,6.1,2.3c1,2.3,0,5-2.3,6.1C235.2,746.8,232.5,745.8,231.4,743.5z
				"/>
			<path class="st4" d="M289.5,781.8c-1-2.3,0-5,2.3-6.1c2.3-1,5,0,6.1,2.3c1,2.3,0,5-2.3,6.1C293.3,785.2,290.6,784.1,289.5,781.8z
				"/>
			<path class="st3" d="M287.2,825.6c-1-2.3,0-5,2.3-6.1c2.3-1,5,0,6.1,2.3c1,2.3,0,5-2.3,6.1C291,828.9,288.3,827.9,287.2,825.6z"
				/>
			<path class="st4" d="M651.8,745.6c-1.6-3.6,0-7.8,3.6-9.4c3.6-1.6,7.8,0,9.4,3.6c1.6,3.6,0,7.8-3.6,9.4S653.4,749.2,651.8,745.6z
				"/>
			<path class="st3" d="M206.5,610.1c-1.1-2.5,0-5.5,2.5-6.6c2.5-1.1,5.5,0,6.6,2.5c1.1,2.5,0,5.5-2.5,6.6
				C210.6,613.8,207.6,612.6,206.5,610.1z"/>
			<path class="st3" d="M155.3,823.7c-1.1-2.4,0-5.3,2.4-6.4c2.4-1.1,5.3,0,6.4,2.4c1.1,2.4,0,5.3-2.4,6.4
				C159.2,827.2,156.4,826.1,155.3,823.7z"/>
			<path class="st3" d="M439.2,524.1c-1.1-2.5,0-5.5,2.5-6.6c2.5-1.1,5.5,0,6.6,2.5c1.1,2.5,0,5.5-2.5,6.6
				C443.3,527.7,440.4,526.6,439.2,524.1z"/>
			<path class="st3" d="M257.8,715.5c-1.1-2.5,0-5.5,2.5-6.6c2.5-1.1,5.5,0,6.6,2.5c1.1,2.5,0,5.5-2.5,6.6
				C261.9,719.1,258.9,718,257.8,715.5z"/>
			<path class="st4" d="M704.9,488.1c-1.1-2.5,0-5.5,2.5-6.6c2.5-1.1,5.5,0,6.6,2.5c1.1,2.5,0,5.5-2.5,6.6
				C708.9,491.8,706,490.6,704.9,488.1z"/>
			<path class="st3" d="M657.5,569c-1.1-2.5,0-5.5,2.5-6.6c2.5-1.1,5.5,0,6.6,2.5c1.1,2.5,0,5.5-2.5,6.6
				C661.6,572.6,658.6,571.5,657.5,569z"/>
			<path class="st4" d="M286.6,470.9c-1.1-2.5,0-5.5,2.5-6.6c2.5-1.1,5.5,0,6.6,2.5c1.1,2.5,0,5.5-2.5,6.6
				C290.7,474.5,287.7,473.4,286.6,470.9z"/>
			<path class="st3" d="M363,932.6c-1.3-2.8,0-6.1,2.8-7.4c2.8-1.3,6.1,0,7.4,2.8c1.3,2.8,0,6.1-2.8,7.4
				C367.5,936.7,364.2,935.4,363,932.6z"/>
			<path class="st4" d="M508.2,834.1c-1.6-3.6,0-7.8,3.6-9.4c3.6-1.6,7.8,0,9.4,3.6c1.6,3.6,0,7.8-3.6,9.4
				C514,839.2,509.8,837.6,508.2,834.1z"/>
			<path class="st3" d="M321.6,646.2c-1.6-3.6,0-7.8,3.6-9.4c3.6-1.6,7.8,0,9.4,3.6c1.6,3.6,0,7.8-3.6,9.4
				C327.4,651.3,323.2,649.8,321.6,646.2z"/>
			<path class="st4" d="M235.2,799.1c-1.6-3.6,0-7.8,3.6-9.4c3.6-1.6,7.8,0,9.4,3.6c1.6,3.6,0,7.8-3.6,9.4
				C240.9,804.2,236.8,802.6,235.2,799.1z"/>
			<path class="st4" d="M252.5,500.9c-1.6-3.6,0-7.8,3.6-9.4c3.6-1.6,7.8,0,9.4,3.6c1.6,3.6,0,7.8-3.6,9.4
				C258.3,506,254.1,504.4,252.5,500.9z"/>
			<path class="st4" d="M401.2,504.2c-1.6-3.6,0-7.8,3.6-9.4c3.6-1.6,7.8,0,9.4,3.6c1.6,3.6,0,7.8-3.6,9.4
				C406.9,509.3,402.8,507.7,401.2,504.2z"/>
			<path class="st4" d="M262.9,627.1c-1.1-2.5,0-5.5,2.5-6.6c2.5-1.1,5.5,0,6.6,2.5c1.1,2.5,0,5.5-2.5,6.6
				C267,630.8,264,629.6,262.9,627.1z"/>
			<path class="st4" d="M897.9,592.7c-1.6-3.6,0-7.8,3.6-9.4c3.6-1.6,7.8,0,9.4,3.6c1.6,3.6,0,7.8-3.6,9.4
				C903.7,597.8,899.5,596.2,897.9,592.7z"/>
			<path class="st4" d="M177.6,671c-1.6-3.6,0-7.8,3.6-9.4s7.8,0,9.4,3.6c1.6,3.6,0,7.8-3.6,9.4C183.4,676.2,179.2,674.6,177.6,671z
				"/>
			<path class="st3" d="M433.8,737.2c-1.6-3.6,0-7.8,3.6-9.4c3.6-1.6,7.8,0,9.4,3.6c1.6,3.6,0,7.8-3.6,9.4
				C439.6,742.3,435.4,740.8,433.8,737.2z"/>
			<path class="st3" d="M962,326.2c-1.6-3.6,0-7.8,3.6-9.4c3.6-1.6,7.8,0,9.4,3.6c1.6,3.6,0,7.8-3.6,9.4
				C967.8,331.4,963.6,329.8,962,326.2z"/>
			<path class="st3" d="M931.5,653.9c-1.6-3.6,0-7.8,3.6-9.4c3.6-1.6,7.8,0,9.4,3.6c1.6,3.6,0,7.8-3.6,9.4
				C937.3,659.1,933.1,657.5,931.5,653.9z"/>
			<path class="st4" d="M175.3,717.4c-1.1-2.5,0-5.5,2.5-6.6c2.5-1.1,5.5,0,6.6,2.5c1.1,2.5,0,5.5-2.5,6.6
				C179.4,721,176.4,719.9,175.3,717.4z"/>
			<path class="st4" d="M605.4,838.7c-1.6-3.6,0-7.8,3.6-9.4c3.6-1.6,7.8,0,9.4,3.6c1.6,3.6,0,7.8-3.6,9.4
				C611.2,843.9,607,842.3,605.4,838.7z"/>
			<path class="st3" d="M473.3,476.6c-1.6-3.6,0-7.8,3.6-9.4c3.6-1.6,7.8,0,9.4,3.6c1.6,3.6,0,7.8-3.6,9.4
				C479.1,481.8,474.9,480.2,473.3,476.6z"/>
			<path class="st4" d="M739.1,464.1c-1.1-2.5,0-5.5,2.5-6.6s5.5,0,6.6,2.5c1.1,2.5,0,5.5-2.5,6.6
				C743.2,467.7,740.2,466.6,739.1,464.1z"/>
			<path class="st4" d="M745.9,415.7c-1.6-3.6,0-7.8,3.6-9.4c3.6-1.6,7.8,0,9.4,3.6c1.6,3.6,0,7.8-3.6,9.4
				C751.7,420.9,747.5,419.3,745.9,415.7z"/>
			<path class="st3" d="M975.5,588.4c-1.1-2.4,0-5.2,2.4-6.3c2.4-1.1,5.2,0,6.3,2.4c1.1,2.4,0,5.2-2.4,6.3
				C979.4,591.9,976.5,590.8,975.5,588.4z"/>
			<path class="st4" d="M1082.4,309.9c-1.6-3.6,0-7.8,3.6-9.4c3.6-1.6,7.8,0,9.4,3.6c1.6,3.6,0,7.8-3.6,9.4
				C1088.2,315,1084,313.4,1082.4,309.9z"/>
			<path class="st3" d="M600.6,378.6c-1.6-3.6,0-7.8,3.6-9.4c3.6-1.6,7.8,0,9.4,3.6c1.6,3.6,0,7.8-3.6,9.4
				C606.4,383.7,602.2,382.1,600.6,378.6z"/>
		</g>
	</g>
	<g class="st5">
		<g>
			<g>
				
					<rect x="1289.3" y="111.1" transform="matrix(0.885 -0.4656 0.4656 0.885 8.1393 635.2145)" class="st2" width="1.2" height="380.1"/>
				
					<rect x="1133.3" y="88.3" transform="matrix(0.9984 -5.604569e-02 5.604569e-02 0.9984 -12.3918 63.9497)" class="st2" width="1.2" height="329.1"/>
				
					<rect x="1090.5" y="292.7" transform="matrix(0.9014 -0.4329 0.4329 0.9014 -6.3361 558.7932)" class="st2" width="266.9" height="1.2"/>
				
					<rect x="1053.8" y="59.5" transform="matrix(0.9445 -0.3284 0.3284 0.9445 -10.3078 357.8545)" class="st2" width="1.2" height="300"/>
			</g>
			
				<rect x="1258.2" y="148" transform="matrix(0.9982 -6.035682e-02 6.035682e-02 0.9982 -16.8904 76.5596)" class="st1" width="1.2" height="339.7"/>
			
				<rect x="1400.7" y="168.6" transform="matrix(0.8811 -0.4729 0.4729 0.8811 22.3764 698.853)" class="st1" width="1.2" height="272.5"/>
			
				<rect x="1321.8" y="243.7" transform="matrix(0.23 -0.9732 0.9732 0.23 637.631 1588.0604)" class="st1" width="1.2" height="294.7"/>
		</g>
		<g>
			<path class="st3" d="M1383,473.2c2.8-3.5,1.1-8.6-3.3-9.7c-2.2-0.5-4.6,0.3-6,2c-2.8,3.5-1.1,8.6,3.3,9.7
				C1379.2,475.7,1381.6,474.9,1383,473.2z"/>
			<path class="st4" d="M1258.6,236.7c2.8-3.5,1.1-8.6-3.3-9.7c-2.2-0.5-4.6,0.3-6,2c-2.8,3.5-1.1,8.6,3.3,9.7
				C1254.8,239.3,1257.2,238.5,1258.6,236.7z"/>
			<path class="st4" d="M1205.7,135.4c1.5-2.7,0.3-6.1-2.7-7.1c-2.2-0.8-4.8,0.2-5.9,2.2c-1.5,2.7-0.3,6.1,2.7,7.1
				C1202,138.4,1204.6,137.4,1205.7,135.4z"/>
			<path class="st3" d="M1352.2,418.1c2.1-2.9,0.6-7-2.9-7.8c-1.9-0.5-4,0.3-5.2,1.9c-2.1,2.9-0.6,7,2.9,7.8
				C1349,420.5,1351.1,419.7,1352.2,418.1z"/>
			<path class="st4" d="M1366.6,403c1.5-2,0.6-4.9-1.9-5.6c-1.4-0.4-2.9,0.1-3.7,1.3c-1.5,2-0.6,4.9,1.9,5.6
				C1364.2,404.7,1365.7,404.1,1366.6,403z"/>
			<path class="st4" d="M1262.2,329.6c1.5-2,0.6-4.9-1.9-5.6c-1.4-0.4-2.9,0.1-3.7,1.3c-1.5,2-0.6,4.9,1.9,5.6
				C1259.9,331.3,1261.4,330.8,1262.2,329.6z"/>
			<path class="st3" d="M1293.6,305.1c1.5-2,0.6-4.9-1.9-5.6c-1.4-0.4-2.9,0.1-3.7,1.3c-1.5,2-0.6,4.9,1.9,5.6
				C1291.3,306.7,1292.8,306.2,1293.6,305.1z"/>
			<path class="st4" d="M1259.2,279.9c1.5-2,0.6-4.9-1.9-5.6c-1.4-0.4-2.9,0.1-3.7,1.3c-1.5,2-0.6,4.9,1.9,5.6
				C1256.8,281.5,1258.4,281,1259.2,279.9z"/>
			<path class="st4" d="M1141.3,336.5c1.5-2,0.6-4.9-1.9-5.6c-1.4-0.4-2.9,0.1-3.7,1.3c-1.5,2-0.6,4.9,1.9,5.6
				C1138.9,338.2,1140.5,337.6,1141.3,336.5z"/>
			<path class="st4" d="M1342.1,397.2c1.5-2,0.6-4.9-1.9-5.6c-1.4-0.4-2.9,0.1-3.7,1.3c-1.5,2-0.6,4.9,1.9,5.6
				C1339.7,398.9,1341.2,398.4,1342.1,397.2z"/>
			<path class="st4" d="M1265.9,389c1.5-2,0.6-4.9-1.9-5.6c-1.4-0.4-2.9,0.1-3.7,1.3c-1.5,2-0.6,4.9,1.9,5.6
				C1263.5,390.7,1265,390.1,1265.9,389z"/>
			<path class="st3" d="M1273.1,491.5c3-3,2-7.9-2-9.4c-2-0.7-4.3-0.3-5.8,1.2c-3,3-2,7.9,2,9.4
				C1269.3,493.5,1271.6,493,1273.1,491.5z"/>
			<path class="st3" d="M1253.7,154.9c3.5-3.7,2.2-9.6-2.5-11.5c-2.6-1.1-5.7-0.4-7.7,1.6c-3.5,3.7-2.2,9.6,2.5,11.5
				C1248.6,157.6,1251.7,157,1253.7,154.9z"/>
			<path class="st4" d="M1381.6,263.8c2.1-2.9,0.6-7-2.9-7.8c-1.9-0.5-4,0.3-5.2,1.9c-2.1,2.9-0.6,7,2.9,7.8
				C1378.4,266.2,1380.5,265.4,1381.6,263.8z"/>
			<path class="st3" d="M1426,346.3c2.1-2.9,0.6-7-2.9-7.8c-1.9-0.5-4,0.3-5.2,1.9c-2.1,2.9-0.6,7,2.9,7.8
				C1422.8,348.7,1424.8,347.9,1426,346.3z"/>
			<path class="st4" d="M1184.6,361.5c3.1-4,1.1-9.8-3.8-11.2c-2.7-0.8-5.7,0.3-7.4,2.5c-3.1,4-1.1,9.8,3.8,11.2
				C1179.8,364.8,1182.8,363.8,1184.6,361.5z"/>
			<path class="st3" d="M1130.3,92.9c3.1-4,1.1-9.8-3.8-11.2c-2.7-0.8-5.7,0.3-7.4,2.5c-3.1,4-1.1,9.8,3.8,11.2
				C1125.6,96.2,1128.6,95.2,1130.3,92.9z"/>
			<path class="st3" d="M1148.8,421.5c3.1-4,1.1-9.8-3.8-11.2c-2.7-0.8-5.7,0.3-7.4,2.5c-3.1,4-1.1,9.8,3.8,11.2
				C1144,424.8,1147,423.8,1148.8,421.5z"/>
			<path class="st4" d="M1348.6,238c1.5-2.7,0.3-6.2-2.7-7.2c-2.2-0.8-4.8,0.2-6,2.3c-1.5,2.7-0.3,6.2,2.7,7.2
				C1344.9,241,1347.5,240.1,1348.6,238z"/>
			<path class="st4" d="M1343,190.3c3.1-4,1.1-9.8-3.8-11.2c-2.7-0.8-5.7,0.3-7.4,2.5c-3.1,4-1.1,9.8,3.8,11.2
				C1338.3,193.6,1341.3,192.6,1343,190.3z"/>
			<path class="st3" d="M1107.6,353.9c1.9-2.7,0.6-6.4-2.5-7.3c-1.9-0.6-4.1,0.1-5.3,1.8c-1.9,2.7-0.6,6.3,2.5,7.3
				C1104.2,356.3,1106.4,355.5,1107.6,353.9z"/>
			<path class="st4" d="M1010.7,72.1c3.1-4,1.1-9.8-3.8-11.2c-2.7-0.8-5.7,0.3-7.4,2.5c-3.1,4-1.1,9.8,3.8,11.2
				C1006,75.4,1009,74.4,1010.7,72.1z"/>
		</g>
	</g>
	<g class="st6">
		<g>
			<g>
				
					<rect x="1045.1" y="646.7" transform="matrix(0.1375 -0.9905 0.9905 0.1375 73.1061 1757.5621)" class="st2" width="1.2" height="380.1"/>
				
					<rect x="1175.2" y="573.6" transform="matrix(0.5363 -0.844 0.844 0.5363 -77.8732 1334.6624)" class="st2" width="1.2" height="329.1"/>
				
					<rect x="957" y="787.2" transform="matrix(0.1736 -0.9848 0.9848 0.1736 125.2737 1724.9423)" class="st2" width="266.9" height="1.2"/>
				
					<rect x="1256.9" y="548.9" transform="matrix(0.2837 -0.9589 0.9589 0.2837 230.5842 1706.4475)" class="st2" width="1.2" height="300"/>
			</g>
			
				<rect x="1049.6" y="632" transform="matrix(0.5327 -0.8463 0.8463 0.5327 -187.8409 1263.4889)" class="st1" width="1.2" height="339.7"/>
			
				<rect x="977.1" y="788.9" transform="matrix(0.1294 -0.9916 0.9916 0.1294 -66.1589 1774.9319)" class="st1" width="1.2" height="272.5"/>
			
				<rect x="806.3" y="810.2" transform="matrix(0.7541 -0.6567 0.6567 0.7541 -297.9762 825.686)" class="st1" width="294.7" height="1.2"/>
		</g>
		<g>
			<path class="st3" d="M851.7,812.2c1.2,4.3,6.4,5.9,9.8,3c1.7-1.5,2.5-3.9,1.8-6.1c-1.2-4.3-6.4-5.9-9.8-3
				C851.8,807.6,851.1,810,851.7,812.2z"/>
			<path class="st4" d="M1116.3,849c1.2,4.3,6.4,5.9,9.8,3c1.7-1.5,2.5-3.9,1.8-6.1c-1.2-4.3-6.4-5.9-9.8-3
				C1116.4,844.4,1115.7,846.8,1116.3,849z"/>
			<path class="st4" d="M1229.5,865c1.3,2.8,4.8,3.8,7.4,2c1.9-1.4,2.6-4,1.6-6.1c-1.3-2.8-4.8-3.8-7.4-2
				C1229.2,860.3,1228.5,862.9,1229.5,865z"/>
			<path class="st3" d="M914.4,819.3c1.1,3.4,5.3,4.6,8.1,2.2c1.5-1.3,2.1-3.4,1.5-5.3c-1.1-3.4-5.3-4.6-8.1-2.2
				C914.3,815.3,913.7,817.4,914.4,819.3z"/>
			<path class="st4" d="M918.2,839.7c0.8,2.4,3.7,3.3,5.6,1.7c1.1-0.9,1.6-2.4,1.1-3.8c-0.8-2.4-3.7-3.3-5.6-1.7
				C918.3,836.9,917.8,838.4,918.2,839.7z"/>
			<path class="st4" d="M1038.7,797.7c0.8,2.4,3.7,3.3,5.6,1.7c1.1-0.9,1.6-2.4,1.1-3.8c-0.8-2.4-3.7-3.3-5.6-1.7
				C1038.7,794.9,1038.2,796.4,1038.7,797.7z"/>
			<path class="st3" d="M1040.3,837.5c0.8,2.4,3.7,3.3,5.6,1.7c1.1-0.9,1.6-2.4,1.1-3.8c-0.8-2.4-3.7-3.3-5.6-1.7
				C1040.4,834.7,1039.9,836.2,1040.3,837.5z"/>
			<path class="st4" d="M1080.9,824.3c0.8,2.4,3.7,3.3,5.6,1.7c1.1-0.9,1.6-2.4,1.1-3.8c-0.8-2.4-3.7-3.3-5.6-1.7
				C1080.9,821.4,1080.4,822.9,1080.9,824.3z"/>
			<path class="st4" d="M1103.6,695.5c0.8,2.4,3.7,3.3,5.6,1.7c1.1-0.9,1.6-2.4,1.1-3.8c-0.8-2.4-3.7-3.3-5.6-1.7
				C1103.6,692.6,1103.1,694.1,1103.6,695.5z"/>
			<path class="st4" d="M937.2,823.2c0.8,2.4,3.7,3.3,5.6,1.7c1.1-0.9,1.6-2.4,1.1-3.8c-0.8-2.4-3.7-3.3-5.6-1.7
				C937.2,820.3,936.8,821.9,937.2,823.2z"/>
			<path class="st4" d="M988.3,766.1c0.8,2.4,3.7,3.3,5.6,1.7c1.1-0.9,1.6-2.4,1.1-3.8c-0.8-2.4-3.7-3.3-5.6-1.7
				C988.4,763.2,987.9,764.7,988.3,766.1z"/>
			<path class="st3" d="M900.8,712.2c0.7,4.2,5.3,6.2,8.8,3.9c1.8-1.2,2.7-3.4,2.4-5.5c-0.7-4.2-5.3-6.2-8.8-3.9
				C901.4,707.9,900.5,710.1,900.8,712.2z"/>
			<path class="st3" d="M1185.6,892.6c0.9,5,6.5,7.4,10.8,4.7c2.4-1.5,3.7-4.4,3.1-7.2c-0.9-5-6.5-7.4-10.8-4.7
				C1186.4,886.9,1185.1,889.8,1185.6,892.6z"/>
			<path class="st4" d="M1022.6,933.1c1.1,3.4,5.3,4.6,8.1,2.2c1.5-1.3,2.1-3.4,1.5-5.3c-1.1-3.4-5.3-4.6-8.1-2.2
				C1022.5,929.1,1022,931.3,1022.6,933.1z"/>
			<path class="st3" d="M929.6,921.1c1.1,3.4,5.3,4.6,8.1,2.2c1.5-1.3,2.1-3.4,1.5-5.3c-1.1-3.4-5.3-4.6-8.1-2.2
				C929.6,917,929,919.2,929.6,921.1z"/>
			<path class="st4" d="M1058,716c1.5,4.8,7.3,6.6,11.3,3.4c2.2-1.8,3.1-4.8,2.3-7.5c-1.5-4.8-7.3-6.6-11.3-3.4
				C1058.1,710.3,1057.2,713.3,1058,716z"/>
			<path class="st3" d="M1307.9,828.5c1.5,4.8,7.3,6.6,11.3,3.4c2.2-1.8,3.1-4.8,2.3-7.5c-1.5-4.8-7.3-6.6-11.3-3.4
				C1308,822.8,1307.1,825.8,1307.9,828.5z"/>
			<path class="st3" d="M1030.2,652c1.5,4.8,7.3,6.6,11.3,3.4c2.2-1.8,3.1-4.8,2.3-7.5c-1.5-4.8-7.3-6.6-11.3-3.4
				C1030.2,646.2,1029.3,649.3,1030.2,652z"/>
			<path class="st4" d="M1062.8,921.3c1.3,2.8,4.9,3.8,7.4,2c1.9-1.4,2.6-4,1.6-6.2c-1.3-2.8-4.9-3.8-7.5-2
				C1062.5,916.5,1061.8,919.2,1062.8,921.3z"/>
			<path class="st4" d="M1104.8,944.6c1.5,4.8,7.3,6.6,11.3,3.4c2.2-1.8,3.1-4.8,2.3-7.5c-1.5-4.8-7.3-6.6-11.3-3.4
				C1104.9,938.8,1103.9,941.9,1104.8,944.6z"/>
			<path class="st3" d="M1109.1,657.9c1.1,3.1,4.8,4.2,7.4,2.3c1.6-1.2,2.3-3.4,1.6-5.4c-1.1-3.1-4.8-4.2-7.4-2.3
				C1109.1,653.8,1108.5,656,1109.1,657.9z"/>
			<path class="st4" d="M1394.5,743.4c1.5,4.8,7.3,6.6,11.3,3.4c2.2-1.8,3.1-4.8,2.3-7.5c-1.5-4.8-7.3-6.6-11.3-3.4
				C1394.6,737.7,1393.7,740.7,1394.5,743.4z"/>
		</g>
	</g>
	<g>
		<g class="st7">
			<g>
				<path class="st3" d="M971.5,417.7L1132,591.8l-257.2,29.3L971.5,417.7 M971.3,416.3l-97.8,205.9l260.3-29.7L971.3,416.3
					L971.3,416.3z"/>
				<path class="st3" d="M1183.3,334.8l-50.1,255.9L972.7,416.6L1183.3,334.8 M1184.4,333.5l-213.1,82.7l162.4,176.2L1184.4,333.5
					L1184.4,333.5z"/>
				<path class="st3" d="M1337,523.6l-86.5,188.1l-115.4-118.9L1337,523.6 M1338.6,522.2L1338.6,522.2L1338.6,522.2z M1338.6,522.2
					l-204.9,70.2l117.1,120.7L1338.6,522.2L1338.6,522.2z"/>
				<path class="st3" d="M1184.8,335.4l152.3,186.5l-202.4,69.4L1184.8,335.4 M1184.4,333.5l-50.7,258.9l204.9-70.2L1184.4,333.5
					L1184.4,333.5z"/>
				<path class="st3" d="M1133.9,593.9l115.4,119l-201.3,75.7L1133.9,593.9 M1133.7,592.4l-87.1,197.5l204.3-76.8L1133.7,592.4
					L1133.7,592.4z"/>
				<path class="st3" d="M1248.8,714.8l-58.3,93.4l-140.7-18.6L1248.8,714.8 M1250.8,713.2l-204.3,76.8l144.4,19.1L1250.8,713.2
					L1250.8,713.2z"/>
				<path class="st3" d="M1132.4,593.4l-86.1,195.1L875.2,622.7L1132.4,593.4 M1133.7,592.4L1133.7,592.4L1133.7,592.4z
					 M1133.7,592.4l-260.3,29.7l173.1,167.8L1133.7,592.4L1133.7,592.4z"/>
				<path class="st3" d="M784.7,397.2L970,416.9l-96.6,203.1L784.7,397.2 M783.4,396.3l90,225.8l97.8-205.9L783.4,396.3L783.4,396.3
					z"/>
				<path class="st3" d="M964.4,227.2l6,188.2l-185.1-19.7L964.4,227.2 M965.2,225.4L783.4,396.3l187.8,20L965.2,225.4L965.2,225.4z
					"/>
				<path class="st3" d="M1169.8,183.1l13.6,149L967.6,225.7L1169.8,183.1 M1170.5,182.1l-205.4,43.2l219.2,108.2L1170.5,182.1
					L1170.5,182.1z"/>
				<path class="st3" d="M966,226.7l216.3,106.7L972,415.1L966,226.7 M965.2,225.4l6.1,190.9l213.1-82.7L965.2,225.4L965.2,225.4z"
					/>
				<path class="st3" d="M962.8,226.5L784.7,394l29-147.5L962.8,226.5 M965.2,225.4L813,245.7l-29.6,150.6L965.2,225.4L965.2,225.4z
					"/>
				<path class="st3" d="M987.2,159.8l-22.6,64.8l-146.8,19.6L987.2,159.8 M988.6,158.2L813,245.7l152.2-20.4L988.6,158.2
					L988.6,158.2z"/>
				<path class="st3" d="M989.2,159.1l176.5,23.2l-199.3,42L989.2,159.1 M988.6,158.2l-23.4,67.2l205.4-43.2L988.6,158.2
					L988.6,158.2z"/>
				<path class="st3" d="M1171.5,184.1l151,134l-137.4,14.5L1171.5,184.1 M1170.5,182.1l13.8,151.4l140.1-14.8L1170.5,182.1
					L1170.5,182.1z"/>
				<path class="st3" d="M1180.6,190l114.2,77.8l26.6,47.2L1180.6,190 M1170.5,182.1l153.9,136.6l-29.1-51.6L1170.5,182.1
					L1170.5,182.1z"/>
				<path class="st3" d="M1323.7,319.6l13.9,200.1L1186,334.2L1323.7,319.6 M1324.4,318.7l-140.1,14.8l154.2,188.7L1324.4,318.7
					L1324.4,318.7z"/>
				<path class="st3" d="M1325.5,322.9l61.5,127.9l-47.8,69L1325.5,322.9 M1324.4,318.7l14.1,203.5l49.4-71.3L1324.4,318.7
					L1324.4,318.7z"/>
				<path class="st3" d="M1386.5,454.4l-34.2,201.5l-12.9-133.4L1386.5,454.4 M1387.9,450.9l-49.4,71.3l13.6,139.8L1387.9,450.9
					L1387.9,450.9z"/>
				<path class="st3" d="M1338,525.3l13.2,136.3l-98.7,49.8L1338,525.3 M1338.6,522.2l-87.7,190.9l101.3-51.1L1338.6,522.2
					L1338.6,522.2z"/>
				<path class="st3" d="M1347.2,665.4l-152.4,139l56.6-90.7L1347.2,665.4 M1352.1,662L1352.1,662L1352.1,662z M1352.1,662
					l-101.3,51.1l-59.9,95.9L1352.1,662L1352.1,662z"/>
				<path class="st3" d="M1046.7,790.8l137.4,18.2l-202.1,21.8L1046.7,790.8 M1046.5,789.9l-68,42l212.4-22.9L1046.5,789.9
					L1046.5,789.9z"/>
				<path class="st3" d="M855.4,762l188.8,28.4L978.6,831L855.4,762 M851.1,760.5l127.5,71.4l68-42L851.1,760.5L851.1,760.5z"/>
				<path class="st3" d="M874,623.8l170.2,165L852,759.8L874,623.8 M873.4,622.1l-22.3,138.4l195.5,29.4L873.4,622.1L873.4,622.1z"
					/>
				<path class="st3" d="M728.3,596.5l144.2,26.3l-21.9,135.7L728.3,596.5 M726.4,595.3l124.7,165.2l22.3-138.4L726.4,595.3
					L726.4,595.3z"/>
				<path class="st3" d="M735,608l111.8,148.1l-42.7-33L735,608 M726.4,595.3l77.1,128.4l47.6,36.8L726.4,595.3L726.4,595.3z"/>
				<path class="st3" d="M783.6,398.8l88.5,222.2l-144.7-26.4L783.6,398.8 M783.4,396.3l-57,199l147,26.8L783.4,396.3L783.4,396.3z"
					/>
				<path class="st3" d="M782.3,397.4l-55.4,193.2l-12.5-178.7L782.3,397.4 M783.4,396.3l-69.8,15l12.8,184L783.4,396.3L783.4,396.3
					z"/>
				<path class="st3" d="M811.3,250.1l-28.6,145.5l-67.5,14.5L811.3,250.1 M813,245.7l-99.4,165.5l69.8-15L813,245.7L813,245.7z"/>
			</g>
			<path class="st3" d="M1132.9,582.7c5.4-0.4,10.1,3.6,10.5,9c0.4,5.4-3.6,10.1-9,10.5c-5.4,0.4-10.1-3.6-10.5-9
				C1123.5,587.8,1127.6,583.1,1132.9,582.7z"/>
			<path class="st3" d="M872.7,612.4c5.4-0.4,10.1,3.6,10.5,9c0.4,5.4-3.6,10.1-9,10.5c-5.4,0.4-10.1-3.6-10.5-9
				C863.3,617.5,867.3,612.8,872.7,612.4z"/>
			
				<ellipse transform="matrix(0.3383 -0.941 0.941 0.3383 250.974 1189.4379)" class="st3" cx="971.3" cy="416.3" rx="9.8" ry="9.8"/>
			<path class="st3" d="M1183.6,323.8c5.4-0.4,10.1,3.6,10.5,9c0.4,5.4-3.6,10.1-9,10.5c-5.4,0.4-10.1-3.6-10.5-9
				C1174.2,328.9,1178.3,324.2,1183.6,323.8z"/>
			<path class="st3" d="M1337.8,512.5c5.4-0.4,10.1,3.6,10.5,9c0.4,5.4-3.6,10.1-9,10.5c-5.4,0.4-10.1-3.6-10.5-9
				C1328.4,517.6,1332.4,512.9,1337.8,512.5z"/>
			<path class="st3" d="M1250.1,703.4c5.4-0.4,10.1,3.6,10.5,9c0.4,5.4-3.6,10.1-9,10.5c-5.4,0.4-10.1-3.6-10.5-9
				C1240.7,708.5,1244.7,703.8,1250.1,703.4z"/>
			<path class="st3" d="M1337.8,512.5c5.4-0.4,10.1,3.6,10.5,9c0.4,5.4-3.6,10.1-9,10.5c-5.4,0.4-10.1-3.6-10.5-9
				C1328.4,517.6,1332.4,512.9,1337.8,512.5z"/>
			<path class="st3" d="M1183.6,323.8c5.4-0.4,10.1,3.6,10.5,9c0.4,5.4-3.6,10.1-9,10.5c-5.4,0.4-10.1-3.6-10.5-9
				C1174.2,328.9,1178.3,324.2,1183.6,323.8z"/>
			
				<ellipse transform="matrix(2.362128e-02 -0.9997 0.9997 2.362128e-02 232.1087 1817.5321)" class="st3" cx="1046.5" cy="789.9" rx="9.8" ry="9.8"/>
			<path class="st3" d="M1250.1,703.4c5.4-0.4,10.1,3.6,10.5,9c0.4,5.4-3.6,10.1-9,10.5c-5.4,0.4-10.1-3.6-10.5-9
				C1240.7,708.5,1244.7,703.8,1250.1,703.4z"/>
			<path class="st3" d="M1250.1,703.4c5.4-0.4,10.1,3.6,10.5,9c0.4,5.4-3.6,10.1-9,10.5c-5.4,0.4-10.1-3.6-10.5-9
				C1240.7,708.5,1244.7,703.8,1250.1,703.4z"/>
			<path class="st3" d="M1190.2,799.3c5.4-0.4,10.1,3.6,10.5,9c0.4,5.4-3.6,10.1-9,10.5c-5.4,0.4-10.1-3.6-10.5-9
				C1180.8,804.4,1184.8,799.7,1190.2,799.3z"/>
			<path class="st3" d="M782.7,386.6c5.4-0.4,10.1,3.6,10.5,9c0.4,5.4-3.6,10.1-9,10.5c-5.4,0.4-10.1-3.6-10.5-9
				C773.3,391.7,777.3,387,782.7,386.6z"/>
			<path class="st3" d="M782.7,386.6c5.4-0.4,10.1,3.6,10.5,9c0.4,5.4-3.6,10.1-9,10.5c-5.4,0.4-10.1-3.6-10.5-9
				C773.3,391.7,777.3,387,782.7,386.6z"/>
			<path class="st3" d="M964.4,215.6c5.4-0.4,10.1,3.6,10.5,9c0.4,5.4-3.6,10.1-9,10.5c-5.4,0.4-10.1-3.6-10.5-9
				C955,220.7,959,216,964.4,215.6z"/>
			<path class="st3" d="M1169.8,172.4c5.4-0.4,10.1,3.6,10.5,9c0.4,5.4-3.6,10.1-9,10.5c-5.4,0.4-10.1-3.6-10.5-9
				C1160.4,177.5,1164.4,172.8,1169.8,172.4z"/>
			<path class="st3" d="M812.3,236c5.4-0.4,10.1,3.6,10.5,9c0.4,5.4-3.6,10.1-9,10.5c-5.4,0.4-10.1-3.6-10.5-9
				C802.8,241.1,806.9,236.4,812.3,236z"/>
			<path class="st3" d="M782.7,386.6c5.4-0.4,10.1,3.6,10.5,9c0.4,5.4-3.6,10.1-9,10.5c-5.4,0.4-10.1-3.6-10.5-9
				C773.3,391.7,777.3,387,782.7,386.6z"/>
			<path class="st3" d="M987.9,148.5c5.4-0.4,10.1,3.6,10.5,9c0.4,5.4-3.6,10.1-9,10.5c-5.4,0.4-10.1-3.6-10.5-9
				C978.5,153.6,982.5,148.9,987.9,148.5z"/>
			<path class="st3" d="M987.9,148.5c5.4-0.4,10.1,3.6,10.5,9c0.4,5.4-3.6,10.1-9,10.5c-5.4,0.4-10.1-3.6-10.5-9
				C978.5,153.6,982.5,148.9,987.9,148.5z"/>
			<path class="st3" d="M1323.7,309c5.4-0.4,10.1,3.6,10.5,9c0.4,5.4-3.6,10.1-9,10.5c-5.4,0.4-10.1-3.6-10.5-9
				C1314.3,314.1,1318.3,309.4,1323.7,309z"/>
			<path class="st3" d="M1294.6,257.4c5.4-0.4,10.1,3.6,10.5,9c0.4,5.4-3.6,10.1-9,10.5c-5.4,0.4-10.1-3.6-10.5-9
				C1285.2,262.5,1289.2,257.8,1294.6,257.4z"/>
			<path class="st3" d="M1337.8,512.5c5.4-0.4,10.1,3.6,10.5,9c0.4,5.4-3.6,10.1-9,10.5c-5.4,0.4-10.1-3.6-10.5-9
				C1328.4,517.6,1332.4,512.9,1337.8,512.5z"/>
			<path class="st3" d="M1337.8,512.5c5.4-0.4,10.1,3.6,10.5,9c0.4,5.4-3.6,10.1-9,10.5c-5.4,0.4-10.1-3.6-10.5-9
				C1328.4,517.6,1332.4,512.9,1337.8,512.5z"/>
			<path class="st3" d="M1387.2,441.2c5.4-0.4,10.1,3.6,10.5,9c0.4,5.4-3.6,10.1-9,10.5c-5.4,0.4-10.1-3.6-10.5-9
				S1381.8,441.6,1387.2,441.2z"/>
			<path class="st3" d="M1337.8,512.5c5.4-0.4,10.1,3.6,10.5,9c0.4,5.4-3.6,10.1-9,10.5c-5.4,0.4-10.1-3.6-10.5-9
				C1328.4,517.6,1332.4,512.9,1337.8,512.5z"/>
			<path class="st3" d="M1351.4,652.3c5.4-0.4,10.1,3.6,10.5,9c0.4,5.4-3.6,10.1-9,10.5c-5.4,0.4-10.1-3.6-10.5-9
				C1342,657.4,1346,652.7,1351.4,652.3z"/>
			<path class="st3" d="M1337.8,512.5c5.4-0.4,10.1,3.6,10.5,9c0.4,5.4-3.6,10.1-9,10.5c-5.4,0.4-10.1-3.6-10.5-9
				C1328.4,517.6,1332.4,512.9,1337.8,512.5z"/>
			<path class="st3" d="M1250.1,703.4c5.4-0.4,10.1,3.6,10.5,9c0.4,5.4-3.6,10.1-9,10.5c-5.4,0.4-10.1-3.6-10.5-9
				C1240.7,708.5,1244.7,703.8,1250.1,703.4z"/>
			<path class="st3" d="M1250.1,703.4c5.4-0.4,10.1,3.6,10.5,9c0.4,5.4-3.6,10.1-9,10.5c-5.4,0.4-10.1-3.6-10.5-9
				C1240.7,708.5,1244.7,703.8,1250.1,703.4z"/>
			<path class="st3" d="M977.8,822.2c5.4-0.4,10.1,3.6,10.5,9c0.4,5.4-3.6,10.1-9,10.5c-5.4,0.4-10.1-3.6-10.5-9
				C968.4,827.3,972.5,822.6,977.8,822.2z"/>
			<path class="st3" d="M850.4,750.8c5.4-0.4,10.1,3.6,10.5,9c0.4,5.4-3.6,10.1-9,10.5c-5.4,0.4-10.1-3.6-10.5-9
				C841,755.9,845,751.2,850.4,750.8z"/>
			<path class="st3" d="M850.4,750.8c5.4-0.4,10.1,3.6,10.5,9c0.4,5.4-3.6,10.1-9,10.5c-5.4,0.4-10.1-3.6-10.5-9
				C841,755.9,845,751.2,850.4,750.8z"/>
			<path class="st3" d="M725.7,585.5c5.4-0.4,10.1,3.6,10.5,9c0.4,5.4-3.6,10.1-9,10.5c-5.4,0.4-10.1-3.6-10.5-9
				C716.3,590.6,720.3,586,725.7,585.5z"/>
			<path class="st3" d="M850.4,750.8c5.4-0.4,10.1,3.6,10.5,9c0.4,5.4-3.6,10.1-9,10.5c-5.4,0.4-10.1-3.6-10.5-9
				C841,755.9,845,751.2,850.4,750.8z"/>
			<path class="st8" d="M850.4,750.8c5.4-0.4,10.1,3.6,10.5,9c0.4,5.4-3.6,10.1-9,10.5c-5.4,0.4-10.1-3.6-10.5-9
				C841,755.9,845,751.2,850.4,750.8z"/>
			<path class="st3" d="M802.7,714c5.4-0.4,10.1,3.6,10.5,9c0.4,5.4-3.6,10.1-9,10.5c-5.4,0.4-10.1-3.6-10.5-9
				C793.3,719.1,797.3,714.4,802.7,714z"/>
			<path class="st3" d="M782.7,386.6c5.4-0.4,10.1,3.6,10.5,9c0.4,5.4-3.6,10.1-9,10.5c-5.4,0.4-10.1-3.6-10.5-9
				C773.3,391.7,777.3,387,782.7,386.6z"/>
			<path class="st3" d="M782.7,386.6c5.4-0.4,10.1,3.6,10.5,9c0.4,5.4-3.6,10.1-9,10.5c-5.4,0.4-10.1-3.6-10.5-9
				C773.3,391.7,777.3,387,782.7,386.6z"/>
			
				<ellipse transform="matrix(0.2433 -0.97 0.97 0.2433 141.0684 1003.3666)" class="st3" cx="713.6" cy="411.3" rx="9.8" ry="9.8"/>
			<path class="st8" d="M782.7,386.6c5.4-0.4,10.1,3.6,10.5,9c0.4,5.4-3.6,10.1-9,10.5c-5.4,0.4-10.1-3.6-10.5-9
				C773.3,391.7,777.3,387,782.7,386.6z"/>
		</g>
		<g>
			<g>
				<path class="st4" d="M947.2,449.2l221.5,112.9L926.2,684.7L947.2,449.2 M946.9,448.7l-21.1,236.6l243.7-123.2L946.9,448.7
					L946.9,448.7z"/>
				<path class="st4" d="M1125.1,291.3l44,270.1L947.5,448.6L1125.1,291.3 M1125.3,290.7l-178.4,158l222.5,113.4L1125.3,290.7
					L1125.3,290.7z"/>
				<path class="st4" d="M1343.9,420.1l-16.5,217.1L1170.1,562L1343.9,420.1 M1344.3,419.3L1344.3,419.3L1344.3,419.3z
					 M1344.3,419.3l-174.8,142.8l158.2,75.6L1344.3,419.3L1344.3,419.3z"/>
				<path class="st4" d="M1125.7,291.3l218,128l-174,142.1L1125.7,291.3 M1125.3,290.7l44.2,271.4l174.8-142.8L1125.3,290.7
					L1125.3,290.7z"/>
				<path class="st4" d="M1169.8,562.6l157.3,75.2l-170.9,148.1L1169.8,562.6 M1169.5,562.1l-13.7,224.6l171.9-149L1169.5,562.1
					L1169.5,562.1z"/>
				<path class="st4" d="M1327.1,638.6l-23.5,114.2L1157,786L1327.1,638.6 M1327.6,637.7l-171.9,149l148.1-33.6L1327.6,637.7
					L1327.6,637.7z"/>
				<path class="st4" d="M1169.1,562.6l-13.6,223.5L926.6,685.3L1169.1,562.6 M1169.5,562.1L1169.5,562.1L1169.5,562.1z
					 M1169.5,562.1L925.8,685.3l230,101.4L1169.5,562.1L1169.5,562.1z"/>
				<path class="st4" d="M946.5,449.1l-21,235.4L756.7,497.3L946.5,449.1 M946.9,448.7L946.9,448.7L946.9,448.7z M946.9,448.7
					l-190.8,48.5l169.7,188.2L946.9,448.7L946.9,448.7z"/>
				<path class="st4" d="M871.8,265.1l74.6,183.3l-189.7,48.2L871.8,265.1 M871.9,264.3L756.1,497.1l190.8-48.5L871.9,264.3
					L871.9,264.3z"/>
				<path class="st4" d="M1056.8,148.2l67.9,142.1L872.9,264L1056.8,148.2 M1057,147.7L871.9,264.3l253.4,26.4L1057,147.7
					L1057,147.7z"/>
				<path class="st4" d="M872.4,264.7l252.1,26.2L947.1,448.1L872.4,264.7 M871.9,264.3l75.1,184.4l178.4-158L871.9,264.3
					L871.9,264.3z"/>
				<path class="st4" d="M871.1,265.1L756.3,496l-25.4-156.6L871.1,265.1 M871.9,264.3l-141.4,75l25.6,157.9L871.9,264.3
					L871.9,264.3z"/>
				<path class="st4" d="M870.1,191l1.4,73.1L732.2,338L870.1,191 M870.5,190.1l-140,149.1l141.4-75L870.5,190.1L870.5,190.1z"/>
				<path class="st4" d="M1055.1,148.5L872.2,263.7l-1.4-73.3L1055.1,148.5 M1057,147.7l-186.5,42.5l1.4,74.1L1057,147.7L1057,147.7
					z"/>
				<path class="st4" d="M1057.6,148.3l198.4,77.2l-130.5,64.7L1057.6,148.3 M1057,147.7l68.3,143l131.5-65.2L1057,147.7L1057,147.7
					z"/>
				<path class="st4" d="M1062,149.3l147.5,36.6l45.5,38.5L1062,149.3 M1057,147.7l199.9,77.8l-47.1-39.9L1057,147.7L1057,147.7z"/>
				<path class="st4" d="M1256.7,226l86.9,192.5L1126,290.7L1256.7,226 M1256.8,225.5l-131.5,65.2l219,128.6L1256.8,225.5
					L1256.8,225.5z"/>
				<path class="st4" d="M1257.9,227l108.5,104.8l-22.2,86.4L1257.9,227 M1256.8,225.5l87.5,193.8l22.5-87.6L1256.8,225.5
					L1256.8,225.5z"/>
				<path class="st4" d="M1366.7,333.3l40.7,215.3l-62.7-129.3L1366.7,333.3 M1366.7,331.7l-22.5,87.6l63.9,131.7L1366.7,331.7
					L1366.7,331.7z"/>
				<path class="st4" d="M1344.5,420.6l63.2,130.4l-79.7,85.7L1344.5,420.6 M1344.3,419.3l-16.6,218.4l80.5-86.6L1344.3,419.3
					L1344.3,419.3z"/>
				<path class="st4" d="M1406.7,553.1l-102,197.6l23.3-112.9L1406.7,553.1 M1408.2,551L1408.2,551L1408.2,551z M1408.2,551
					l-80.5,86.6l-23.8,115.4L1408.2,551L1408.2,551z"/>
				<path class="st4" d="M1301.2,754l-195.4,97.3L1156,787L1301.2,754 M1303.9,753.1l-148.1,33.6l-51.2,65.7L1303.9,753.1
					L1303.9,753.1z"/>
				<path class="st4" d="M1154.9,787.2l-50.5,64.8L956,828.6L1154.9,787.2 M1155.8,786.6l-201.7,42l150.5,23.7L1155.8,786.6
					L1155.8,786.6z"/>
				<path class="st4" d="M926.3,685.9l228.4,100.7l-200.3,41.7L926.3,685.9 M925.8,685.3l28.3,143.3l201.7-42L925.8,685.3
					L925.8,685.3z"/>
				<path class="st4" d="M925.5,685.7l28.1,142.2L773.3,712.5L925.5,685.7 M925.8,685.3l-153.4,27l181.7,116.4L925.8,685.3
					L925.8,685.3z"/>
				<path class="st4" d="M777.6,716l174.2,111.5l-57.4-17.9L777.6,716 M772.4,712.3l121.8,97.6l59.9,18.7L772.4,712.3L772.4,712.3z"
					/>
				<path class="st4" d="M756.5,498.1l168.6,187l-152.4,26.8L756.5,498.1 M756.1,497.1l16.3,215.1l153.4-27L756.1,497.1L756.1,497.1
					z"/>
				<path class="st4" d="M755.8,497.7l16.1,212.7l-78.2-173.2L755.8,497.7 M756.1,497.1l-62.8,39.9l79.1,175.2L756.1,497.1
					L756.1,497.1z"/>
				<path class="st4" d="M730.5,341.2L755.7,497l-62,39.4L730.5,341.2 M730.5,339.3l-37.2,197.8l62.8-39.9L730.5,339.3L730.5,339.3z
					"/>
			</g>
			<g>
				<path class="st4" d="M1175.4,559.9c1.2,3.3-0.5,6.9-3.7,8.1c-3.3,1.2-6.9-0.5-8.1-3.7c-1.2-3.3,0.5-6.9,3.7-8.1
					C1170.5,555,1174.2,556.6,1175.4,559.9z"/>
				<path class="st4" d="M931.7,683.1c1.2,3.3-0.5,6.9-3.7,8.1c-3.3,1.2-6.9-0.5-8.1-3.7c-1.2-3.3,0.5-6.9,3.7-8.1
					C926.9,678.2,930.5,679.8,931.7,683.1z"/>
				<path class="st4" d="M952.8,446.5c1.2,3.3-0.5,6.9-3.7,8.1c-3.3,1.2-6.9-0.5-8.1-3.7c-1.2-3.3,0.5-6.9,3.7-8.1
					C948,441.6,951.6,443.2,952.8,446.5z"/>
				<path class="st4" d="M952.8,446.5c1.2,3.3-0.5,6.9-3.7,8.1c-3.3,1.2-6.9-0.5-8.1-3.7c-1.2-3.3,0.5-6.9,3.7-8.1
					C948,441.6,951.6,443.2,952.8,446.5z"/>
				<path class="st4" d="M1175.4,559.9c1.2,3.3-0.5,6.9-3.7,8.1c-3.3,1.2-6.9-0.5-8.1-3.7c-1.2-3.3,0.5-6.9,3.7-8.1
					C1170.5,555,1174.2,556.6,1175.4,559.9z"/>
				<path class="st4" d="M1131.2,288.5c1.2,3.3-0.5,6.9-3.7,8.1c-3.3,1.2-6.9-0.5-8.1-3.7c-1.2-3.3,0.5-6.9,3.7-8.1
					C1126.4,283.5,1130,285.2,1131.2,288.5z"/>
				<path class="st4" d="M1175.4,559.9c1.2,3.3-0.5,6.9-3.7,8.1c-3.3,1.2-6.9-0.5-8.1-3.7c-1.2-3.3,0.5-6.9,3.7-8.1
					C1170.5,555,1174.2,556.6,1175.4,559.9z"/>
				<path class="st4" d="M1350.2,417.1c1.2,3.3-0.5,6.9-3.7,8.1c-3.3,1.2-6.9-0.5-8.1-3.7c-1.2-3.3,0.5-6.9,3.7-8.1
					C1345.4,412.2,1349,413.8,1350.2,417.1z"/>
				<path class="st4" d="M1333.6,635.5c1.2,3.3-0.5,6.9-3.7,8.1c-3.3,1.2-6.9-0.5-8.1-3.7c-1.2-3.3,0.5-6.9,3.7-8.1
					C1328.7,630.6,1332.3,632.2,1333.6,635.5z"/>
				<path class="st4" d="M1350.2,417.1c1.2,3.3-0.5,6.9-3.7,8.1c-3.3,1.2-6.9-0.5-8.1-3.7c-1.2-3.3,0.5-6.9,3.7-8.1
					C1345.4,412.2,1349,413.8,1350.2,417.1z"/>
				<path class="st4" d="M1175.4,559.9c1.2,3.3-0.5,6.9-3.7,8.1c-3.3,1.2-6.9-0.5-8.1-3.7c-1.2-3.3,0.5-6.9,3.7-8.1
					C1170.5,555,1174.2,556.6,1175.4,559.9z"/>
				<path class="st4" d="M1131.2,288.5c1.2,3.3-0.5,6.9-3.7,8.1c-3.3,1.2-6.9-0.5-8.1-3.7c-1.2-3.3,0.5-6.9,3.7-8.1
					C1126.4,283.5,1130,285.2,1131.2,288.5z"/>
				<path class="st4" d="M1175.4,559.9c1.2,3.3-0.5,6.9-3.7,8.1c-3.3,1.2-6.9-0.5-8.1-3.7c-1.2-3.3,0.5-6.9,3.7-8.1
					C1170.5,555,1174.2,556.6,1175.4,559.9z"/>
				<path class="st4" d="M1161.7,784.5c1.2,3.3-0.5,6.9-3.7,8.1c-3.3,1.2-6.9-0.5-8.1-3.7c-1.2-3.3,0.5-6.9,3.7-8.1
					C1156.9,779.5,1160.5,781.2,1161.7,784.5z"/>
				<path class="st4" d="M1333.6,635.5c1.2,3.3-0.5,6.9-3.7,8.1c-3.3,1.2-6.9-0.5-8.1-3.7c-1.2-3.3,0.5-6.9,3.7-8.1
					C1328.7,630.6,1332.3,632.2,1333.6,635.5z"/>
				<path class="st4" d="M1333.6,635.5c1.2,3.3-0.5,6.9-3.7,8.1c-3.3,1.2-6.9-0.5-8.1-3.7c-1.2-3.3,0.5-6.9,3.7-8.1
					C1328.7,630.6,1332.3,632.2,1333.6,635.5z"/>
				<path class="st4" d="M1161.7,784.5c1.2,3.3-0.5,6.9-3.7,8.1c-3.3,1.2-6.9-0.5-8.1-3.7c-1.2-3.3,0.5-6.9,3.7-8.1
					C1156.9,779.5,1160.5,781.2,1161.7,784.5z"/>
				<path class="st4" d="M1309.8,750.9c1.2,3.3-0.5,6.9-3.7,8.1c-3.3,1.2-6.9-0.5-8.1-3.7c-1.2-3.3,0.5-6.9,3.7-8.1
					C1304.9,746,1308.6,747.6,1309.8,750.9z"/>
				<path class="st4" d="M1175.4,559.9c1.2,3.3-0.5,6.9-3.7,8.1c-3.3,1.2-6.9-0.5-8.1-3.7c-1.2-3.3,0.5-6.9,3.7-8.1
					C1170.5,555,1174.2,556.6,1175.4,559.9z"/>
				<path class="st4" d="M1161.7,784.5c1.2,3.3-0.5,6.9-3.7,8.1c-3.3,1.2-6.9-0.5-8.1-3.7c-1.2-3.3,0.5-6.9,3.7-8.1
					C1156.9,779.5,1160.5,781.2,1161.7,784.5z"/>
				<path class="st4" d="M931.7,683.1c1.2,3.3-0.5,6.9-3.7,8.1c-3.3,1.2-6.9-0.5-8.1-3.7c-1.2-3.3,0.5-6.9,3.7-8.1
					C926.9,678.2,930.5,679.8,931.7,683.1z"/>
				<path class="st4" d="M952.8,446.5c1.2,3.3-0.5,6.9-3.7,8.1c-3.3,1.2-6.9-0.5-8.1-3.7c-1.2-3.3,0.5-6.9,3.7-8.1
					C948,441.6,951.6,443.2,952.8,446.5z"/>
				<path class="st4" d="M931.7,683.1c1.2,3.3-0.5,6.9-3.7,8.1c-3.3,1.2-6.9-0.5-8.1-3.7c-1.2-3.3,0.5-6.9,3.7-8.1
					C926.9,678.2,930.5,679.8,931.7,683.1z"/>
				<path class="st4" d="M762,495c1.2,3.3-0.5,6.9-3.7,8.1c-3.3,1.2-6.9-0.5-8.1-3.7c-1.2-3.3,0.5-6.9,3.7-8.1
					C757.2,490,760.8,491.7,762,495z"/>
				<path class="st4" d="M762,495c1.2,3.3-0.5,6.9-3.7,8.1c-3.3,1.2-6.9-0.5-8.1-3.7c-1.2-3.3,0.5-6.9,3.7-8.1
					C757.2,490,760.8,491.7,762,495z"/>
				<path class="st4" d="M952.8,446.5c1.2,3.3-0.5,6.9-3.7,8.1c-3.3,1.2-6.9-0.5-8.1-3.7c-1.2-3.3,0.5-6.9,3.7-8.1
					C948,441.6,951.6,443.2,952.8,446.5z"/>
				<path class="st4" d="M877.8,262.1c1.2,3.3-0.5,6.9-3.7,8.1c-3.3,1.2-6.9-0.5-8.1-3.7c-1.2-3.3,0.5-6.9,3.7-8.1
					C872.9,257.2,876.6,258.8,877.8,262.1z"/>
				<path class="st4" d="M1131.2,288.5c1.2,3.3-0.5,6.9-3.7,8.1c-3.3,1.2-6.9-0.5-8.1-3.7c-1.2-3.3,0.5-6.9,3.7-8.1
					C1126.4,283.5,1130,285.2,1131.2,288.5z"/>
				<path class="st4" d="M877.8,262.1c1.2,3.3-0.5,6.9-3.7,8.1c-3.3,1.2-6.9-0.5-8.1-3.7c-1.2-3.3,0.5-6.9,3.7-8.1
					C872.9,257.2,876.6,258.8,877.8,262.1z"/>
				<path class="st4" d="M1062.9,145.5c1.2,3.3-0.5,6.9-3.7,8.1c-3.3,1.2-6.9-0.5-8.1-3.7c-1.2-3.3,0.5-6.9,3.7-8.1
					C1058,140.6,1061.6,142.2,1062.9,145.5z"/>
				<path class="st4" d="M877.8,262.1c1.2,3.3-0.5,6.9-3.7,8.1c-3.3,1.2-6.9-0.5-8.1-3.7c-1.2-3.3,0.5-6.9,3.7-8.1
					C872.9,257.2,876.6,258.8,877.8,262.1z"/>
				<path class="st4" d="M1131.2,288.5c1.2,3.3-0.5,6.9-3.7,8.1c-3.3,1.2-6.9-0.5-8.1-3.7c-1.2-3.3,0.5-6.9,3.7-8.1
					C1126.4,283.5,1130,285.2,1131.2,288.5z"/>
				<path class="st4" d="M952.8,446.5c1.2,3.3-0.5,6.9-3.7,8.1c-3.3,1.2-6.9-0.5-8.1-3.7c-1.2-3.3,0.5-6.9,3.7-8.1
					C948,441.6,951.6,443.2,952.8,446.5z"/>
				<path class="st4" d="M877.8,262.1c1.2,3.3-0.5,6.9-3.7,8.1c-3.3,1.2-6.9-0.5-8.1-3.7c-1.2-3.3,0.5-6.9,3.7-8.1
					C872.9,257.2,876.6,258.8,877.8,262.1z"/>
				<path class="st4" d="M736.4,337.1c1.2,3.3-0.5,6.9-3.7,8.1c-3.3,1.2-6.9-0.5-8.1-3.7c-1.2-3.3,0.5-6.9,3.7-8.1
					C731.6,332.2,735.2,333.8,736.4,337.1z"/>
				<path class="st4" d="M762,495c1.2,3.3-0.5,6.9-3.7,8.1c-3.3,1.2-6.9-0.5-8.1-3.7c-1.2-3.3,0.5-6.9,3.7-8.1
					C757.2,490,760.8,491.7,762,495z"/>
				<path class="st4" d="M736.4,337.1c1.2,3.3-0.5,6.9-3.7,8.1c-3.3,1.2-6.9-0.5-8.1-3.7c-1.2-3.3,0.5-6.9,3.7-8.1
					C731.6,332.2,735.2,333.8,736.4,337.1z"/>
				<path class="st4" d="M877.8,262.1c1.2,3.3-0.5,6.9-3.7,8.1c-3.3,1.2-6.9-0.5-8.1-3.7c-1.2-3.3,0.5-6.9,3.7-8.1
					C872.9,257.2,876.6,258.8,877.8,262.1z"/>
				<path class="st4" d="M876.4,188c1.2,3.3-0.5,6.9-3.7,8.1c-3.3,1.2-6.9-0.5-8.1-3.7c-1.2-3.3,0.5-6.9,3.7-8.1
					C871.5,183,875.2,184.7,876.4,188z"/>
				<path class="st4" d="M876.4,188c1.2,3.3-0.5,6.9-3.7,8.1c-3.3,1.2-6.9-0.5-8.1-3.7c-1.2-3.3,0.5-6.9,3.7-8.1
					C871.5,183,875.2,184.7,876.4,188z"/>
				<path class="st4" d="M877.8,262.1c1.2,3.3-0.5,6.9-3.7,8.1c-3.3,1.2-6.9-0.5-8.1-3.7c-1.2-3.3,0.5-6.9,3.7-8.1
					C872.9,257.2,876.6,258.8,877.8,262.1z"/>
				<path class="st4" d="M1062.9,145.5c1.2,3.3-0.5,6.9-3.7,8.1c-3.3,1.2-6.9-0.5-8.1-3.7c-1.2-3.3,0.5-6.9,3.7-8.1
					C1058,140.6,1061.6,142.2,1062.9,145.5z"/>
				<path class="st4" d="M1062.9,145.5c1.2,3.3-0.5,6.9-3.7,8.1c-3.3,1.2-6.9-0.5-8.1-3.7c-1.2-3.3,0.5-6.9,3.7-8.1
					C1058,140.6,1061.6,142.2,1062.9,145.5z"/>
				<path class="st4" d="M1131.2,288.5c1.2,3.3-0.5,6.9-3.7,8.1c-3.3,1.2-6.9-0.5-8.1-3.7c-1.2-3.3,0.5-6.9,3.7-8.1
					C1126.4,283.5,1130,285.2,1131.2,288.5z"/>
				<path class="st4" d="M1262.7,223.3c1.2,3.3-0.5,6.9-3.7,8.1c-3.3,1.2-6.9-0.5-8.1-3.7c-1.2-3.3,0.5-6.9,3.7-8.1
					C1257.9,218.4,1261.5,220.1,1262.7,223.3z"/>
				<path class="st4" d="M1262.7,223.3c1.2,3.3-0.5,6.9-3.7,8.1c-3.3,1.2-6.9-0.5-8.1-3.7c-1.2-3.3,0.5-6.9,3.7-8.1
					C1257.9,218.4,1261.5,220.1,1262.7,223.3z"/>
				<path class="st4" d="M1062.9,145.5c1.2,3.3-0.5,6.9-3.7,8.1c-3.3,1.2-6.9-0.5-8.1-3.7c-1.2-3.3,0.5-6.9,3.7-8.1
					C1058,140.6,1061.6,142.2,1062.9,145.5z"/>
				<path class="st4" d="M1215.6,183.4c1.2,3.3-0.5,6.9-3.7,8.1c-3.3,1.2-6.9-0.5-8.1-3.7c-1.2-3.3,0.5-6.9,3.7-8.1
					C1210.8,178.5,1214.4,180.1,1215.6,183.4z"/>
				<path class="st4" d="M1350.2,417.1c1.2,3.3-0.5,6.9-3.7,8.1c-3.3,1.2-6.9-0.5-8.1-3.7c-1.2-3.3,0.5-6.9,3.7-8.1
					C1345.4,412.2,1349,413.8,1350.2,417.1z"/>
				<path class="st4" d="M1262.7,223.3c1.2,3.3-0.5,6.9-3.7,8.1c-3.3,1.2-6.9-0.5-8.1-3.7c-1.2-3.3,0.5-6.9,3.7-8.1
					C1257.9,218.4,1261.5,220.1,1262.7,223.3z"/>
				<path class="st4" d="M1131.2,288.5c1.2,3.3-0.5,6.9-3.7,8.1c-3.3,1.2-6.9-0.5-8.1-3.7c-1.2-3.3,0.5-6.9,3.7-8.1
					C1126.4,283.5,1130,285.2,1131.2,288.5z"/>
				<path class="st4" d="M1262.7,223.3c1.2,3.3-0.5,6.9-3.7,8.1c-3.3,1.2-6.9-0.5-8.1-3.7c-1.2-3.3,0.5-6.9,3.7-8.1
					C1257.9,218.4,1261.5,220.1,1262.7,223.3z"/>
				<path class="st4" d="M1350.2,417.1c1.2,3.3-0.5,6.9-3.7,8.1c-3.3,1.2-6.9-0.5-8.1-3.7c-1.2-3.3,0.5-6.9,3.7-8.1
					C1345.4,412.2,1349,413.8,1350.2,417.1z"/>
				<path class="st4" d="M1372.7,329.5c1.2,3.3-0.5,6.9-3.7,8.1c-3.3,1.2-6.9-0.5-8.1-3.7c-1.2-3.3,0.5-6.9,3.7-8.1
					C1367.8,324.6,1371.4,326.3,1372.7,329.5z"/>
				<path class="st4" d="M1372.7,329.5c1.2,3.3-0.5,6.9-3.7,8.1c-3.3,1.2-6.9-0.5-8.1-3.7c-1.2-3.3,0.5-6.9,3.7-8.1
					C1367.8,324.6,1371.4,326.3,1372.7,329.5z"/>
				<path class="st4" d="M1350.2,417.1c1.2,3.3-0.5,6.9-3.7,8.1c-3.3,1.2-6.9-0.5-8.1-3.7c-1.2-3.3,0.5-6.9,3.7-8.1
					C1345.4,412.2,1349,413.8,1350.2,417.1z"/>
				<path class="st4" d="M1414.1,548.8c1.2,3.3-0.5,6.9-3.7,8.1c-3.3,1.2-6.9-0.5-8.1-3.7c-1.2-3.3,0.5-6.9,3.7-8.1
					C1409.2,543.9,1412.9,545.6,1414.1,548.8z"/>
				<path class="st4" d="M1414.1,548.8c1.2,3.3-0.5,6.9-3.7,8.1c-3.3,1.2-6.9-0.5-8.1-3.7c-1.2-3.3,0.5-6.9,3.7-8.1
					C1409.2,543.9,1412.9,545.6,1414.1,548.8z"/>
				<path class="st4" d="M1350.2,417.1c1.2,3.3-0.5,6.9-3.7,8.1c-3.3,1.2-6.9-0.5-8.1-3.7c-1.2-3.3,0.5-6.9,3.7-8.1
					C1345.4,412.2,1349,413.8,1350.2,417.1z"/>
				<path class="st4" d="M1333.6,635.5c1.2,3.3-0.5,6.9-3.7,8.1c-3.3,1.2-6.9-0.5-8.1-3.7c-1.2-3.3,0.5-6.9,3.7-8.1
					C1328.7,630.6,1332.3,632.2,1333.6,635.5z"/>
				<path class="st4" d="M1333.6,635.5c1.2,3.3-0.5,6.9-3.7,8.1c-3.3,1.2-6.9-0.5-8.1-3.7c-1.2-3.3,0.5-6.9,3.7-8.1
					C1328.7,630.6,1332.3,632.2,1333.6,635.5z"/>
				<path class="st4" d="M1414.1,548.8c1.2,3.3-0.5,6.9-3.7,8.1c-3.3,1.2-6.9-0.5-8.1-3.7c-1.2-3.3,0.5-6.9,3.7-8.1
					C1409.2,543.9,1412.9,545.6,1414.1,548.8z"/>
				<path class="st4" d="M1309.8,750.9c1.2,3.3-0.5,6.9-3.7,8.1c-3.3,1.2-6.9-0.5-8.1-3.7c-1.2-3.3,0.5-6.9,3.7-8.1
					C1304.9,746,1308.6,747.6,1309.8,750.9z"/>
				<path class="st4" d="M1309.8,750.9c1.2,3.3-0.5,6.9-3.7,8.1c-3.3,1.2-6.9-0.5-8.1-3.7c-1.2-3.3,0.5-6.9,3.7-8.1
					C1304.9,746,1308.6,747.6,1309.8,750.9z"/>
				<path class="st4" d="M1161.7,784.5c1.2,3.3-0.5,6.9-3.7,8.1c-3.3,1.2-6.9-0.5-8.1-3.7c-1.2-3.3,0.5-6.9,3.7-8.1
					C1156.9,779.5,1160.5,781.2,1161.7,784.5z"/>
				<path class="st4" d="M1110.5,850.1c1.2,3.3-0.5,6.9-3.7,8.1c-3.3,1.2-6.9-0.5-8.1-3.7c-1.2-3.3,0.5-6.9,3.7-8.1
					C1105.6,845.2,1109.2,846.9,1110.5,850.1z"/>
				<path class="st4" d="M1110.5,850.1c1.2,3.3-0.5,6.9-3.7,8.1c-3.3,1.2-6.9-0.5-8.1-3.7c-1.2-3.3,0.5-6.9,3.7-8.1
					C1105.6,845.2,1109.2,846.9,1110.5,850.1z"/>
				<path class="st4" d="M1161.7,784.5c1.2,3.3-0.5,6.9-3.7,8.1c-3.3,1.2-6.9-0.5-8.1-3.7c-1.2-3.3,0.5-6.9,3.7-8.1
					C1156.9,779.5,1160.5,781.2,1161.7,784.5z"/>
				<path class="st4" d="M960,826.5c1.2,3.3-0.5,6.9-3.7,8.1c-3.3,1.2-6.9-0.5-8.1-3.7c-1.2-3.3,0.5-6.9,3.7-8.1
					C955.2,821.5,958.8,823.2,960,826.5z"/>
				<path class="st4" d="M960,826.5c1.2,3.3-0.5,6.9-3.7,8.1c-3.3,1.2-6.9-0.5-8.1-3.7c-1.2-3.3,0.5-6.9,3.7-8.1
					C955.2,821.5,958.8,823.2,960,826.5z"/>
				<path class="st4" d="M1161.7,784.5c1.2,3.3-0.5,6.9-3.7,8.1c-3.3,1.2-6.9-0.5-8.1-3.7c-1.2-3.3,0.5-6.9,3.7-8.1
					C1156.9,779.5,1160.5,781.2,1161.7,784.5z"/>
				<path class="st4" d="M931.7,683.1c1.2,3.3-0.5,6.9-3.7,8.1c-3.3,1.2-6.9-0.5-8.1-3.7c-1.2-3.3,0.5-6.9,3.7-8.1
					C926.9,678.2,930.5,679.8,931.7,683.1z"/>
				<path class="st4" d="M778.3,710.1c1.2,3.3-0.5,6.9-3.7,8.1c-3.3,1.2-6.9-0.5-8.1-3.7c-1.2-3.3,0.5-6.9,3.7-8.1
					C773.5,705.2,777.1,706.8,778.3,710.1z"/>
				<path class="st4" d="M931.7,683.1c1.2,3.3-0.5,6.9-3.7,8.1c-3.3,1.2-6.9-0.5-8.1-3.7c-1.2-3.3,0.5-6.9,3.7-8.1
					C926.9,678.2,930.5,679.8,931.7,683.1z"/>
				<path class="st4" d="M960,826.5c1.2,3.3-0.5,6.9-3.7,8.1c-3.3,1.2-6.9-0.5-8.1-3.7c-1.2-3.3,0.5-6.9,3.7-8.1
					C955.2,821.5,958.8,823.2,960,826.5z"/>
				<path class="st4" d="M960,826.5c1.2,3.3-0.5,6.9-3.7,8.1c-3.3,1.2-6.9-0.5-8.1-3.7c-1.2-3.3,0.5-6.9,3.7-8.1
					C955.2,821.5,958.8,823.2,960,826.5z"/>
				<path class="st4" d="M778.3,710.1c1.2,3.3-0.5,6.9-3.7,8.1c-3.3,1.2-6.9-0.5-8.1-3.7c-1.2-3.3,0.5-6.9,3.7-8.1
					C773.5,705.2,777.1,706.8,778.3,710.1z"/>
				<path class="st4" d="M900.1,807.7c1.2,3.3-0.5,6.9-3.7,8.1c-3.3,1.2-6.9-0.5-8.1-3.7s0.5-6.9,3.7-8.1
					C895.3,802.8,898.9,804.5,900.1,807.7z"/>
				<path class="st4" d="M931.7,683.1c1.2,3.3-0.5,6.9-3.7,8.1c-3.3,1.2-6.9-0.5-8.1-3.7c-1.2-3.3,0.5-6.9,3.7-8.1
					C926.9,678.2,930.5,679.8,931.7,683.1z"/>
				<path class="st4" d="M778.3,710.1c1.2,3.3-0.5,6.9-3.7,8.1c-3.3,1.2-6.9-0.5-8.1-3.7c-1.2-3.3,0.5-6.9,3.7-8.1
					C773.5,705.2,777.1,706.8,778.3,710.1z"/>
				<path class="st4" d="M762,495c1.2,3.3-0.5,6.9-3.7,8.1c-3.3,1.2-6.9-0.5-8.1-3.7c-1.2-3.3,0.5-6.9,3.7-8.1
					C757.2,490,760.8,491.7,762,495z"/>
				<path class="st4" d="M778.3,710.1c1.2,3.3-0.5,6.9-3.7,8.1c-3.3,1.2-6.9-0.5-8.1-3.7c-1.2-3.3,0.5-6.9,3.7-8.1
					C773.5,705.2,777.1,706.8,778.3,710.1z"/>
				<path class="st4" d="M762,495c1.2,3.3-0.5,6.9-3.7,8.1c-3.3,1.2-6.9-0.5-8.1-3.7c-1.2-3.3,0.5-6.9,3.7-8.1
					C757.2,490,760.8,491.7,762,495z"/>
				<path class="st4" d="M699.2,534.9c1.2,3.3-0.5,6.9-3.7,8.1c-3.3,1.2-6.9-0.5-8.1-3.7c-1.2-3.3,0.5-6.9,3.7-8.1
					C694.3,530,698,531.6,699.2,534.9z"/>
				<path class="st4" d="M699.2,534.9c1.2,3.3-0.5,6.9-3.7,8.1c-3.3,1.2-6.9-0.5-8.1-3.7c-1.2-3.3,0.5-6.9,3.7-8.1
					C694.3,530,698,531.6,699.2,534.9z"/>
				<path class="st4" d="M762,495c1.2,3.3-0.5,6.9-3.7,8.1c-3.3,1.2-6.9-0.5-8.1-3.7c-1.2-3.3,0.5-6.9,3.7-8.1
					C757.2,490,760.8,491.7,762,495z"/>
				<path class="st4" d="M736.4,337.1c1.2,3.3-0.5,6.9-3.7,8.1c-3.3,1.2-6.9-0.5-8.1-3.7c-1.2-3.3,0.5-6.9,3.7-8.1
					C731.6,332.2,735.2,333.8,736.4,337.1z"/>
			</g>
		</g>
	</g>
</g>
</svg>
